<?xml version="1.0" encoding="utf-8"?>
<!-- Generator: Adobe Illustrator 23.1.1, SVG Export Plug-In . SVG Version: 6.00 Build 0)  -->
<svg version="1.1" id="Calque_1" xmlns="http://www.w3.org/2000/svg" xmlns:xlink="http://www.w3.org/1999/xlink" x="0px" y="0px"
	 viewBox="0 0 400 400" style="enable-background:new 0 0 400 400;" xml:space="preserve">
<style type="text/css">
	.st0{font-family:'GillSans';}
	.st1{font-size:180px;}
</style>
<g transform="translate(0.000000,400.000000) scale(0.100000,-0.100000)">
	<path d="M686,3985c-56-20-107-65-136-121l-25-48l-3-1796c-2-1353,0-1806,9-1838c17-60,60-116,116-149l48-28h1305h1305l47,28
		c26,15,59,42,72,60c59,77,56-17,55,1636v1516l-348,375l-347,375l-1030,2C900,3999,718,3997,686,3985z M2630,3485
		c0-258,2-311,16-336c28-55,55-59,354-59h270V1655V220l-26-10c-35-14-2453-14-2488,0l-26,10v1778c0,978,3,1782,7,1785
		c3,4,431,7,950,7h943V3485z M3114,3333l30-33h-152h-152v165v164l122-132C3029,3424,3097,3350,3114,3333z"/>
</g>
<text transform="matrix(1 0 0 1 78.0001 271.6146)" class="st0 st1">CV</text>
</svg>
