<?xml version="1.0" encoding="utf-8"?>
<!-- Generator: Adobe Illustrator 23.1.1, SVG Export Plug-In . SVG Version: 6.00 Build 0)  -->
<svg version="1.1" id="Calque_1" xmlns="http://www.w3.org/2000/svg" xmlns:xlink="http://www.w3.org/1999/xlink" x="0px" y="0px"
	 viewBox="0 0 450 445.9" style="enable-background:new 0 0 450 445.9;" xml:space="preserve">
<style type="text/css">
	.st0{fill:#131B28;}
	.st1{fill:#0868AC;}
</style>
<path class="st0" d="M1069.2,181.6L1069.2,181.6l-16,56.7L1069.2,181.6z M1151.4,304.6l-17.6-0.1L1151.4,304.6z M1146.9,389.3
	L1146.9,389.3l-105.6,0.4L1146.9,389.3z M1169,304.7l-17.6-0.1L1169,304.7z M1156.1,382.1l18.4-70.2L1156.1,382.1L1156.1,382.1z
	 M1545,59l-34.3,161.1C1510.7,220.1,1545,59,1545,59z M1456.9,59l-26,120.3L1456.9,59L1456.9,59z"/>
<path class="st0" d="M1539.1,51.8h-73.3c-4.1,0-8.1,3.3-9,7.2l-26,120.4l-26,120.4c-0.9,4-4.9,7.2-9,7.2H1344
	c-51.3,0-45.4-35.5-34.9-84.1l0.3-1.5l1.2-6.1l0.2-1.2l2.3-12.5l2.5-13.4c0.8-4,1.9-9.9,2.7-13.6l11.8-57.8L1342,59
	c0.8-4-1.9-7.3-5.9-7.3h-75.2c-4.1,0-8.1,3.3-8.9,7.2l-16.2,76.7l-16.2,76.7c0,0,0,0.1,0,0.1l-1.5,7.1
	c-18.6,85-13.7,166.1,87.6,168.7c1.7,0,2.9,0.1,2.9,0.1h158.9c4.1,0,8.1-3.3,8.9-7.2l34.3-161.1L1545,59
	C1545.8,55,1543.2,51.8,1539.1,51.8L1539.1,51.8z M1831.4,307.8c4.1,0,6.7,3.3,5.9,7.2l-7.1,34.8 M1823.1,384.6l7.1-34.8
	L1823.1,384.6L1823.1,384.6z M1814.2,391.9L1814.2,391.9c-21.5,0.2-86.3,0.7-135,0.7C1738.4,392.6,1814.2,391.9,1814.2,391.9z
	 M1635.4,263c-0.1-3.8,4.3-10.4,8.4-10.4l-9.2-0.2C1630.5,293.9,1635.4,263,1635.4,263z"/>
<path class="st0" d="M1685.8,392.5c-0.5,0-0.9,0-1.4,0C1684.9,392.5,1685.4,392.5,1685.8,392.5z M1831.4,307.8
	c4.1,0,6.7,3.3,5.9,7.2l-7.1,34.8l-1.2,5.7 M1720.5,392.5h-0.3H1720.5z M1702.5,392.5h-1H1702.5z M1697,392.5c-0.6,0-1.2,0-1.7,0
	C1695.9,392.5,1696.5,392.5,1697,392.5z M1691.5,392.5h-1.5H1691.5z M1701.5,392.5l-4.4,0L1701.5,392.5z M1720.2,392.5
	c-5.9,0-11.8,0-17.7,0.1C1708.4,392.5,1714.3,392.5,1720.2,392.5z M1823.1,384.6l6-29.1L1823.1,384.6L1823.1,384.6z M1695.3,392.5
	h-3.9H1695.3z M1684.4,392.6h-5.2H1684.4z M1689.9,392.5h-4.1H1689.9z M618,263.8l11.4-50.5l-13,57.7l-12.5,58.8l10.9-51.5
	C615.7,274.3,617.1,267.8,618,263.8L618,263.8z M754.3,50.9h-80.5c-4.1,0-8.1,3.2-9,7.2l-7.6,33.7l-7.6,33.7c-0.9,4,1.7,7.2,5.8,7.2
	h81.1c4.1,0,8.1-3.2,9-7.2l7.4-33.7l7.4-33.7v0C760.9,54.2,758.3,50.9,754.3,50.9L754.3,50.9z M736.7,162.9L736.7,162.9l-23.6,109.2
	L736.7,162.9L736.7,162.9z M503,524.7c0,0,40.6,0.5,66.3,0.5C549.7,525.3,517.4,524.9,503,524.7L503,524.7z M640.8,162.9l-11.4,50.5
	L640.8,162.9z"/>
<path class="st0" d="M730.9,155.7h-81.1c-4.1,0-8.1,3.2-9,7.2l-11.4,50.5L618,263.9c-0.9,4-2.3,10.5-3.2,14.5l-10.9,51.5l-10.9,51.5
	c-1.1,4.8-2.4,9.6-3.9,14.2c0,0-15.2,45.1-40.6,44.6c-1.1,0-2.1,0-3.2-0.1c-12.3-0.2-22-0.4-22-0.4h0c-4.1-0.1-8.1,3.1-9.1,7.1
	l-8.4,35.4l-8.4,35.3c-0.9,4,1.6,7.2,5.7,7.3c14.4,0.2,46.8,0.5,66.4,0.5c63.6,0,97.2-35.3,118.7-136.7l25.2-116.4l23.6-109.2
	C737.6,159,735,155.7,730.9,155.7L730.9,155.7z M1883.1,388.4c-4.1,0-6.7-3.3-5.9-7.3l61-285.8 M1967.9,381.2l24.7-122L1967.9,381.2
	z"/>
<path class="st0" d="M1878.1,384.8c-0.5-2-0.2-6.9,0.7-10.9l29-135.7l-30.5,142.9c-0.9,4,1.8,7.2,5.9,7.2h7.4
	C1886.4,388.4,1878.6,386.8,1878.1,384.8L1878.1,384.8z M1963.1,386.8c-2.2,0.9-7.4,1.6-11.4,1.6h7.4c4.1,0,8.1-3.3,8.9-7.3l1.5-7.2
	C1968.6,377.9,1965.3,385.9,1963.1,386.8L1963.1,386.8z M1980.3,320.2l10.9-53.8c0,0,0,0.1,0,0.1L1980.3,320.2z M2221,114.5
	l3.4,13.9c0.9,4-1.6,7.2-5.7,7.2 M1969.4,373.9l10.9-53.7L1969.4,373.9z M2217.7,100.3l3.3,14.2L2217.7,100.3z M1991.1,266.4
	c0.8-4,2.2-10.4,3-14.4l11.6-54.5l-13.2,61.7L1991.1,266.4L1991.1,266.4z M1939.3,90.7c-0.8,3.8-1.8,8.7-2.5,11.9l-29,135.7
	l30.5-142.9L1939.3,90.7z"/>
<path class="st0" d="M2224.3,128.4l-3.4-13.9l-3.3-14.2l-1.7-7.2c-6.6-25.6-25.9-40.4-67.9-40.4l-65.4-0.1l-60.2-0.1h-67.7
	c-4.1,0-8.1,3.2-8.9,7.2h0l-3,14.2l-3.5,16.7l-1,4.7l-30.5,142.9l-29,135.7c-0.9,4-1.2,8.9-0.7,10.9c0.5,2,8.3,3.6,12.4,3.6h61.1
	c4.1,0,9.2-0.7,11.4-1.6c2.2-0.9,5.5-8.9,6.3-12.9l10.9-53.7l10.9-53.7l0-0.1l1.5-7.2l13.2-61.7l11.6-54.5c0.9-4,4.9-7.2,8.9-7.2
	l192.3-0.1C2222.7,135.6,2225.3,132.4,2224.3,128.4L2224.3,128.4z"/>
<path class="st0" d="M2471.9,2.9c-4.1,0-10.7,0.1-14.8,0.1h-61.6c-4.1,0-9.3,2.7-11.6,6.1l-136.1,199.4c-2.3,3.4-4.9,2.9-5.8-1.1
	l-10-43.9c-0.9-4-5-7.2-9-7.2h-87.5c-4.1,0-6.5,3.2-5.4,7.1l39.2,137.4c1.1,3.9,1.2,10.3,0.2,14.3l-17.1,66.5
	c-1,3.9,1.5,7.2,5.6,7.2h86.5c4.1,0,8.2-3.2,9.2-7.2l17.1-66.5c1-3.9,3.8-9.8,6.3-13.1l221-293.3c2.5-3.2,1.1-5.9-2.9-5.9
	L2471.9,2.9L2471.9,2.9z M1776.7,174.9L1776.7,174.9c-0.5,4.3-4.6,7.6-8.7,7.6h-110.9c-3.8,0-5.8-2.6-5.2-5.8c0-0.1,0-0.2,0.1-0.3
	c0,0,0,0-0.1,0c0-0.1,0-0.2,0.1-0.4l0.5-1.9c10.6-28.2,32.2-46.7,72.7-46.7C1770.9,127.5,1779.8,149.8,1776.7,174.9L1776.7,174.9z
	 M1744.2,46.8c-142.4,0-176.1,86.4-195.1,173.7c-18.9,88.9-17.3,172.1,130,172.1h5.2c0.5,0,0.9,0,1.4,0h9.5c0.6,0,1.1,0,1.7,0l4.4,0
	h1c5.8,0,11.8,0,17.7-0.1h0.3c38.9-0.2,77.9-0.4,93.7-0.6c4-0.1,8-3.3,8.8-7.3l6-29.2l1.2-5.7l7.1-34.8c0.8-4-1.9-7.3-5.9-7.3
	h-132.5c-52.7,0-68.3-14-62.6-55.2h211.8l0,0c0.1,0,0.1,0,0.1,0c3.4-0.1,6.5-2.4,7.7-5.5c0.2-0.6,0.4-1.2,0.5-1.9l0,0
	C1887.9,126.7,1878.9,46.8,1744.2,46.8L1744.2,46.8L1744.2,46.8z M1071.2,174.4l-2,7.1l0,0l-16,56.7l-16,56.7
	c-1.1,3.9-5.3,7.1-9.4,7.1h-84.6c-64.2,0-79.8-50.2-64.2-124.3C894.6,102,925.2,54.9,988.4,50.1
	C1074.7,43.6,1092,104.3,1071.2,174.4L1071.2,174.4z M1129.2,297.6c0,0,39.9-96.9,49-152.8c12.4-74.9-25.2-183.6-170-183.6
	C864.1-38.8,801.5,65,777.7,177.7c-23.9,113.6,7.4,213.2,150.6,212.4l113-0.4l105.6-0.4c4.1,0,8.2-3.3,9.3-7.2l18.4-70.2
	c1-3.9-1.5-7.2-5.5-7.2l-17.6-0.1l-17.6-0.1c-3.5,0-5.4-2.3-5-5.2C1128.8,298.7,1129,298.2,1129.2,297.6L1129.2,297.6L1129.2,297.6z
	"/>
<path class="st0" d="M1842.3,232.8c0,2.7-2.2,4.9-4.9,4.9s-4.9-2.2-4.9-4.9s2.2-4.9,4.9-4.9S1842.3,230.1,1842.3,232.8z"/>
<path class="st1" d="M29.2,106.8C-10.5,164-5.6,238.4,24.8,299.1c0.7,1.5,1.5,2.9,2.2,4.3c0.5,0.9,0.9,1.8,1.4,2.7
	c0.3,0.5,0.6,1.1,0.9,1.6c0.5,1,1,1.9,1.6,2.8c0.9,1.7,1.9,3.3,2.9,5c0.5,0.9,1.1,1.8,1.7,2.7c1.1,1.8,2.2,3.5,3.4,5.3
	c0.5,0.7,0.9,1.5,1.4,2.2c1.6,2.4,3.2,4.7,4.9,7l0.1,0.2c0.3,0.4,0.6,0.7,0.8,1.1c1.4,2,2.9,4,4.4,5.9c0.6,0.7,1.1,1.4,1.7,2.1
	c1.9,2.3,3.8,4.6,5.7,6.9c1.9,2.3,3.8,4.5,5.8,6.7c0.1,0.1,0.2,0.1,0.2,0.2c4,4.3,8.1,8.5,12.3,12.6c0.6,0.6,1.3,1.2,1.9,1.8
	c2.1,2,4.3,4,6.5,5.9c0.4,0.3,0.7,0.6,1.1,0.9c1.9,1.6,3.8,3.3,5.8,4.9c0.8,0.6,1.6,1.3,2.4,1.9c1.6,1.3,3.2,2.5,4.8,3.8l2.6,2
	c1.8,1.3,3.6,2.6,5.4,3.9c0.7,0.5,1.3,0.9,2,1.4c0.2,0.1,0.4,0.3,0.5,0.4c1.7,1.2,3.5,2.3,5.2,3.5c0.8,0.5,1.5,1,2.3,1.5
	c2.7,1.7,5.4,3.4,8.2,5c0.7,0.4,1.5,0.9,2.3,1.3c2,1.2,4.1,2.3,6.2,3.5c1.1,0.6,2.3,1.2,3.4,1.8c1.5,0.8,2.9,1.6,4.4,2.3
	c0.3,0.2,0.7,0.3,1,0.5c0.6,0.3,1.2,0.6,1.8,0.9c2.8,1.3,5.6,2.7,8.5,3.9c2.7,1.2,5.4,2.3,8.2,3.4c0.7,0.3,1.3,0.5,2,0.8
	c2.9,1.1,5.8,2.2,8.7,3.2c2.8,1,5.7,1.9,8.6,2.8c0.7,0.2,1.4,0.4,2.1,0.6c2.9,0.9,5.8,1.9,8.9,2.5
	c192.4,35.1,248.2-115.6,248.2-115.6c-46.9,61.1-130.2,77.3-209.1,59.3c-3-0.7-5.9-1.6-8.8-2.5c-3.6-1.1-7.1-2.2-10.7-3.4l-1.2-0.4
	c-2.5-0.9-5-1.8-7.5-2.8c-0.7-0.3-1.4-0.5-2.1-0.8c-2.7-1.1-5.4-2.2-8.1-3.4c-0.5-0.2-1.1-0.5-1.6-0.7c-2.9-1.3-5.9-2.7-8.8-4.1
	c-1.8-0.9-3.5-1.8-5.3-2.7c-1.2-0.6-2.4-1.2-3.5-1.8c-2.1-1.1-4.2-2.3-6.3-3.5c-0.7-0.4-1.4-0.8-2.1-1.2c-2.8-1.6-5.5-3.3-8.2-5
	c-0.7-0.5-1.5-1-2.2-1.5c-2-1.3-3.9-2.6-5.9-3.9c-0.6-0.4-1.3-0.9-1.9-1.3c-1.9-1.3-3.7-2.6-5.5-4c-0.8-0.6-1.6-1.2-2.5-1.9
	c-2.4-1.9-4.8-3.8-7.2-5.7c-2.1-1.7-4.2-3.5-6.2-5.2l-0.7-0.6c-2.2-1.9-4.4-3.9-6.5-5.9c-0.6-0.6-1.2-1.2-1.8-1.8
	c-1.6-1.5-3.2-3-4.7-4.6c-0.6-0.6-1.2-1.2-1.8-1.8c-2-2-3.9-4-5.8-6.1l-0.3-0.3c-2-2.2-3.9-4.4-5.8-6.7c-0.5-0.6-1-1.2-1.5-1.8
	c-1.4-1.7-2.8-3.4-4.2-5.2c-0.5-0.6-1-1.3-1.5-1.9c-1.7-2.1-3.3-4.3-4.9-6.5C41,217.6,25.3,135.1,60.3,67.4"/>
<path class="st1" d="M152.7,58.7C124,100,125.5,155.5,148,199.2c3.8,7.4,8,14.5,12.7,21.2c4.3,6.2,9.1,13.5,14.8,18.5
	c2.1,2.3,4.2,4.5,6.5,6.7c0.6,0.6,1.1,1.1,1.7,1.7c2.1,2.1,4.3,4.1,6.6,6.1c0.1,0.1,0.2,0.2,0.3,0.2c0,0,0.1,0,0.1,0.1
	c2.5,2.2,5.1,4.3,7.7,6.4c0.6,0.4,1.2,0.9,1.7,1.4c2.6,2,5.3,4,8.1,5.9c0.1,0.1,0.2,0.1,0.2,0.2c1.2,0.8,2.4,1.6,3.7,2.4
	c0.6,0.4,1.1,0.8,1.7,1.2c2,1.3,3.9,2.5,6,3.7c0.3,0.2,0.6,0.3,0.8,0.5c1.7,1,3.5,2,5.3,2.9c0.6,0.3,1.2,0.7,1.9,1
	c1.2,0.6,2.4,1.3,3.7,1.9c0.2,0.1,0.4,0.2,0.6,0.3c2.5,1.3,5.1,2.5,7.7,3.6c0.6,0.2,1.1,0.5,1.7,0.7c2.1,0.9,4.2,1.8,6.3,2.6
	c0.9,0.3,1.8,0.7,2.7,1c1.9,0.7,3.9,1.4,5.8,2c0.9,0.3,1.7,0.6,2.6,0.8c2.8,0.9,5.5,1.9,8.4,2.4C415.7,319.1,450,204.8,450,204.8
	c-30.9,44.5-90.8,65.8-154.6,49.2c-3.7-1-7.3-2.1-10.9-3.2c-2.9-0.9-5.7-1.9-8.5-3c-2.1-0.8-4.2-1.7-6.3-2.6
	c-0.6-0.2-1.1-0.5-1.7-0.7c-2.6-1.1-5.2-2.3-7.7-3.6c-1.3-0.6-2.6-1.3-3.9-2l-2.2-1.2c-1.7-0.9-3.3-1.8-4.9-2.8
	c-0.4-0.2-0.8-0.4-1.2-0.7c-2-1.2-4-2.4-6-3.6c-0.6-0.4-1.2-0.8-1.8-1.2c-1.3-0.8-2.6-1.7-3.9-2.6c-2.7-1.9-5.4-3.9-8-5.9
	c-0.6-0.5-1.2-0.9-1.8-1.4c-28-22.1-50.1-52.2-60.7-86.4c-11-35.5-8.7-75.3,10.5-107.6"/>
<path class="st1" d="M256.6,22.7c-17,25-18.6,55.9-6.9,83.5c12.4,29.3,37.8,52.2,67.5,63.1c1.2,0.5,2.4,0.9,3.7,1.3
	c0.5,0.2,1.1,0.4,1.6,0.5c1.7,0.5,3.5,1.2,5.3,1.5c82,15.8,104.2-42.1,110.2-50.6c-19.5,28.1-52.2,34.8-92.4,25
	c-3.3-0.8-6.5-1.8-9.7-3c-3.9-1.4-7.8-3-11.5-4.8c-7.1-3.4-13.9-7.6-20.2-12.3c-36-27.3-58.3-79.3-34.8-121.7 M1180.1,508.7
	l-23.6,53.8h-26.1l2.1-48.9l-19.2,48.9h-25.3l-0.7-53.8l2.8-13.3h17.9l-3.5,53.2l19.9-53.2h24.9l-1.8,53.8l19.7-53.8h15.6
	L1180.1,508.7z M1221.3,524.6c2.3-10.5,1.6-12.5-3.8-12.5h-8.2l-5.3,24.6l-8,25.8h-15.3l12.5-58.4l1.8-8.5h13.9l1.8,3.9
	c0,0,8-4.8,15.9-4.8c16.7,0,15.4,12.6,11.8,29.9L1221.3,524.6z M1270.9,487c-6.7,0-11-2-9.4-10.2c1.8-8.2,7.1-10.2,13.6-10.2
	c6.6,0,11,2,9.2,10.2C1282.7,484.9,1277.5,487,1270.9,487L1270.9,487z M1263.7,562.6h-15.1l3-26.3l5.3-24.3l-10.5-2.3l2.9-14.3h28.7
	L1263.7,562.6L1263.7,562.6z M1329.2,509.7l-18.9,2.3l-5.4,25.6c-1.5,7.1-1.5,9,4.8,9h12.6l-2.6,13.5c0,0-11.5,3.5-16.4,3.5
	c-19.4,0-19.2-10.7-15.8-26.6l5.3-25.1l-10.5-2.3l3.1-14.3h11l6.2-16.9h14.9l-3.6,16.9h18.4L1329.2,509.7L1329.2,509.7z
	 M1368.4,510.5c-8.9,0-13.5,4.6-15.3,12.8l25.3-2.1C1379.6,515.6,1378.4,510.5,1368.4,510.5z M1350.7,535.5c-1.2,8.2,2,11,12.5,11
	h26.4l-2.6,12.5c0,0-15.9,4.4-27.7,4.4c-29.4,0-29.7-16.6-25.9-34.3c3.8-17.4,10.5-34.6,38.9-34.6c27.4,0,28.7,16.6,22,41H1350.7
	L1350.7,535.5z M1454.4,562.5h-15.1l3-26.3l10.7-49.9l-10.5-2.5l3.1-14.3h28.7L1454.4,562.5L1454.4,562.5z M1508.9,510.5
	c-8.9,0-13.5,4.6-15.3,12.8l25.3-2.1C1520.1,515.6,1518.9,510.5,1508.9,510.5z M1491.2,535.5c-1.1,8.2,2,11,12.5,11h26.4l-2.6,12.5
	c0,0-15.9,4.4-27.7,4.4c-29.4,0-29.7-16.6-25.9-34.3c3.8-17.4,10.5-34.6,38.9-34.6c27.4,0,28.7,16.6,22,41H1491.2L1491.2,535.5z
	 M1603.9,511.3c0,0-19.2,0.2-24.5,0.2c-11.2,0-12.3,3.4-13.1,7l-0.7,3.3l35.5,2.6c0,0,0.2,11.3-1.3,17.7
	c-2.1,10.7-13.1,21.5-33,21.5c-9.9,0-25.8-3.8-25.8-3.8l2.8-13h24.5c10.8,0,12.3-3,13-5.9l0.8-4.3l-34.8-2.6c0,0-1.3-8.7,0.5-17.4
	c2.6-11.8,13.5-22,33.3-22c9.8,0,25.8,3.6,25.8,3.6L1603.9,511.3L1603.9,511.3z M1669.9,511.3c0,0-19.2,0.2-24.5,0.2
	c-11.2,0-12.3,3.4-13.1,7l-0.7,3.3l35.5,2.6c0,0,0.2,11.3-1.3,17.7c-2.1,10.7-13.1,21.5-33,21.5c-9.8,0-25.8-3.8-25.8-3.8l2.8-13
	h24.5c10.8,0,12.3-3,13-5.9l0.8-4.3l-34.8-2.6c0,0-1.3-8.7,0.5-17.4c2.6-11.8,13.5-22,33.3-22c9.8,0,25.8,3.6,25.8,3.6L1669.9,511.3
	L1669.9,511.3z M1690.6,573.2h-13.1l0.5-9.9c-4.8-0.3-7.2-3.8-6.1-9.5c1.8-8.2,6.9-10.2,13.6-10.2c6.6,0,11,2,9.2,10.2L1690.6,573.2
	z M1778.4,512c-9.8,0-13.3,5.9-15.6,16.7c-2.3,10.8-1.6,17.2,8.2,17.2h13.6l7.6-34H1778.4z M1800.9,553.8l-1.8,8.7l-13.8-0.2l-2-4.3
	c0,0-12.2,5.2-20.3,5.2c-21,0-22-17.2-18.2-34.6c3.8-17.7,12-34.5,32.8-34.5c7.6,0,17.7,3.8,17.7,3.8l8.4-28.4h15.1L1800.9,553.8
	L1800.9,553.8z M1855.2,511.3c-12.8,0-16.9,7.2-19.2,17.7c-2.1,10.7-1.1,17.9,11.5,17.9c13.1,0,17.1-7.1,19.4-17.9
	C1869.2,518.9,1868.5,511.3,1855.2,511.3L1855.2,511.3z M1844.1,563.5c-27.1,0-29.2-16.9-25.6-34.5c3.8-17.6,13.3-34.3,40.4-34.3
	c26.9,0,29.4,16.7,25.6,34.3C1880.7,547,1871.2,563.5,1844.1,563.5L1844.1,563.5z M1997.7,562.5l3-25.9l1.5-7.4
	c2.1-9.8,3.4-17.1-6.9-17.1h-8c0.3,5.1-0.7,10.8-2,16.9l-7.1,33.5h-15.3l3-25.9l1.5-7.4c2.1-9.8,3.4-17.1-6.9-17.1h-6.6l-10.8,50.4
	h-17.6l14.3-67.1h13.8l2.1,4.1c0,0,9.4-4.9,16.9-4.9c5.7,0,10,2.6,11.5,5.9c3.3-1.8,12.6-5.9,19.4-5.9c21,0,20.3,17.1,16.6,34.5
	l-7.1,33.5L1997.7,562.5L1997.7,562.5L1997.7,562.5z M2067.5,511.3c-12.8,0-16.9,7.2-19.2,17.7c-2.1,10.7-1.1,17.9,11.5,17.9
	c13.1,0,17.1-7.1,19.4-17.9C2081.4,518.9,2080.8,511.3,2067.5,511.3L2067.5,511.3z M2056.3,563.5c-27.1,0-29.2-16.9-25.6-34.5
	c3.8-17.6,13.3-34.3,40.4-34.3c26.9,0,29.4,16.7,25.6,34.3C2092.9,547,2083.4,563.5,2056.3,563.5z M2142.3,524.6
	c2.3-10.5,1.6-12.5-3.8-12.5h-8.2l-5.3,24.6l-8.1,25.8h-15.3l12.5-58.4l1.8-8.5h14l1.8,3.9c0,0,8.1-4.8,15.9-4.8
	c16.7,0,15.4,12.6,11.8,29.9L2142.3,524.6L2142.3,524.6z M2201.1,510.5c-8.9,0-13.5,4.6-15.3,12.8l25.3-2.1
	C2212.3,515.6,2211.1,510.5,2201.1,510.5L2201.1,510.5z M2183.4,535.5c-1.1,8.2,2,11,12.5,11h26.4l-2.6,12.5c0,0-15.9,4.4-27.7,4.4
	c-29.4,0-29.7-16.6-25.9-34.3c3.8-17.4,10.5-34.6,38.9-34.6c27.4,0,28.7,16.6,22,41H2183.4L2183.4,535.5z M2241.6,563.5
	c-6.9,0-11.2-2-9.3-10c1.6-8.2,6.7-10.2,13.6-10.2c6.4,0,10.8,2,9.2,10.2C2253.3,561.4,2248,563.5,2241.6,563.5z"/>
</svg>
